<?xml version="1.0" encoding="UTF-8" standalone="no"?>
<!DOCTYPE svg PUBLIC "-//W3C//DTD SVG 1.1//EN"
 "http://www.w3.org/Graphics/SVG/1.1/DTD/svg11.dtd">
<!-- Generated by graphviz version 2.38.0 (20140413.2041)
 -->
<!-- Title: Tree Pages: 1 -->
<svg width="421pt" height="186pt"
 viewBox="0.00 0.00 421.00 186.00" xmlns="http://www.w3.org/2000/svg" xmlns:xlink="http://www.w3.org/1999/xlink">
<g id="graph0" class="graph" transform="scale(1 1) rotate(0) translate(4 182)">
<title>Tree</title>
<polygon fill="white" stroke="none" points="-4,4 -4,-182 417,-182 417,4 -4,4"/>
<!-- 0 -->
<g id="node1" class="node"><title>0</title>
<path fill="#e58139" fill-opacity="0.701961" stroke="black" d="M401,-178C401,-178 12,-178 12,-178 6,-178 0,-172 0,-166 0,-166 0,-112 0,-112 0,-106 6,-100 12,-100 12,-100 401,-100 401,-100 407,-100 413,-106 413,-112 413,-112 413,-166 413,-166 413,-172 407,-178 401,-178"/>
<text text-anchor="start" x="8" y="-163.8" font-family="Helvetica,sans-Serif" font-size="14.00">inspections_zip_code_3month_type_complaint_sum ≤ 0.5</text>
<text text-anchor="start" x="163" y="-149.8" font-family="Helvetica,sans-Serif" font-size="14.00">gini = 0.353</text>
<text text-anchor="start" x="146" y="-135.8" font-family="Helvetica,sans-Serif" font-size="14.00">samples = 26018</text>
<text text-anchor="start" x="126.5" y="-121.8" font-family="Helvetica,sans-Serif" font-size="14.00">value = [20060, 5958]</text>
<text text-anchor="start" x="171.5" y="-107.8" font-family="Helvetica,sans-Serif" font-size="14.00">class = y</text>
<text text-anchor="start" x="233.5" y="-107.8" font-family="Helvetica,sans-Serif" baseline-shift="sub" font-size="14.00">0</text>
</g>
<!-- 1 -->
<g id="node2" class="node"><title>1</title>
<path fill="#e58139" fill-opacity="0.666667" stroke="black" d="M190.5,-64C190.5,-64 38.5,-64 38.5,-64 32.5,-64 26.5,-58 26.5,-52 26.5,-52 26.5,-12 26.5,-12 26.5,-6 32.5,-0 38.5,-0 38.5,-0 190.5,-0 190.5,-0 196.5,-0 202.5,-6 202.5,-12 202.5,-12 202.5,-52 202.5,-52 202.5,-58 196.5,-64 190.5,-64"/>
<text text-anchor="start" x="71" y="-49.8" font-family="Helvetica,sans-Serif" font-size="14.00">gini = 0.375</text>
<text text-anchor="start" x="54" y="-35.8" font-family="Helvetica,sans-Serif" font-size="14.00">samples = 21708</text>
<text text-anchor="start" x="34.5" y="-21.8" font-family="Helvetica,sans-Serif" font-size="14.00">value = [16281, 5427]</text>
<text text-anchor="start" x="79.5" y="-7.8" font-family="Helvetica,sans-Serif" font-size="14.00">class = y</text>
<text text-anchor="start" x="141.5" y="-7.8" font-family="Helvetica,sans-Serif" baseline-shift="sub" font-size="14.00">0</text>
</g>
<!-- 0&#45;&gt;1 -->
<g id="edge1" class="edge"><title>0&#45;&gt;1</title>
<path fill="none" stroke="black" d="M173.026,-99.7956C164.998,-90.6335 156.419,-80.8428 148.374,-71.6603"/>
<polygon fill="black" stroke="black" points="150.987,-69.332 141.765,-64.1172 145.722,-73.9451 150.987,-69.332"/>
<text text-anchor="middle" x="140.118" y="-85.3629" font-family="Helvetica,sans-Serif" font-size="14.00">True</text>
</g>
<!-- 2 -->
<g id="node3" class="node"><title>2</title>
<path fill="#e58139" fill-opacity="0.858824" stroke="black" d="M366.5,-64C366.5,-64 232.5,-64 232.5,-64 226.5,-64 220.5,-58 220.5,-52 220.5,-52 220.5,-12 220.5,-12 220.5,-6 226.5,-0 232.5,-0 232.5,-0 366.5,-0 366.5,-0 372.5,-0 378.5,-6 378.5,-12 378.5,-12 378.5,-52 378.5,-52 378.5,-58 372.5,-64 366.5,-64"/>
<text text-anchor="start" x="256" y="-49.8" font-family="Helvetica,sans-Serif" font-size="14.00">gini = 0.216</text>
<text text-anchor="start" x="243.5" y="-35.8" font-family="Helvetica,sans-Serif" font-size="14.00">samples = 4310</text>
<text text-anchor="start" x="228.5" y="-21.8" font-family="Helvetica,sans-Serif" font-size="14.00">value = [3779, 531]</text>
<text text-anchor="start" x="264.5" y="-7.8" font-family="Helvetica,sans-Serif" font-size="14.00">class = y</text>
<text text-anchor="start" x="326.5" y="-7.8" font-family="Helvetica,sans-Serif" baseline-shift="sub" font-size="14.00">0</text>
</g>
<!-- 0&#45;&gt;2 -->
<g id="edge2" class="edge"><title>0&#45;&gt;2</title>
<path fill="none" stroke="black" d="M240.338,-99.7956C248.453,-90.6335 257.125,-80.8428 265.258,-71.6603"/>
<polygon fill="black" stroke="black" points="267.929,-73.9237 271.939,-64.1172 262.689,-69.2824 267.929,-73.9237"/>
<text text-anchor="middle" x="273.451" y="-85.3714" font-family="Helvetica,sans-Serif" font-size="14.00">False</text>
</g>
</g>
</svg>
